<?xml version="1.0" encoding="UTF-8" standalone="no"?>
<!-- Created with Inkscape (http://www.inkscape.org/) -->

<svg
   version="1.1"
   id="svg1"
   width="1145.2097"
   height="124.72466"
   viewBox="0 0 1145.2097 124.72466"
   sodipodi:docname="the-cevennes-express_main-menu_logo.svg"
   inkscape:version="1.3 (0e150ed6c4, 2023-07-21)"
   xmlns:inkscape="http://www.inkscape.org/namespaces/inkscape"
   xmlns:sodipodi="http://sodipodi.sourceforge.net/DTD/sodipodi-0.dtd"
   xmlns="http://www.w3.org/2000/svg"
   xmlns:svg="http://www.w3.org/2000/svg">
  <defs
     id="defs1" />
  <sodipodi:namedview
     id="namedview1"
     pagecolor="#ffffff"
     bordercolor="#666666"
     borderopacity="1.0"
     inkscape:showpageshadow="2"
     inkscape:pageopacity="0.0"
     inkscape:pagecheckerboard="0"
     inkscape:deskcolor="#d1d1d1"
     inkscape:zoom="0.3034925"
     inkscape:cx="738.07425"
     inkscape:cy="143.33138"
     inkscape:window-width="1366"
     inkscape:window-height="709"
     inkscape:window-x="0"
     inkscape:window-y="0"
     inkscape:window-maximized="1"
     inkscape:current-layer="g1">
    <inkscape:page
       x="0"
       y="0"
       inkscape:label="1"
       id="page1"
       width="1145.2097"
       height="124.72466"
       margin="0"
       bleed="0" />
  </sodipodi:namedview>
  <g
     id="g1"
     inkscape:groupmode="layer"
     inkscape:label="1"
     transform="translate(379.84692,37.795322)">
    <path
       id="path1"
       d="M 192.7579,81.260585 H -328.824 v -11.3394 c -25.04868,0 -45.35416,-20.305479 -45.35416,-45.354198 0,-25.04863981 20.30548,-45.354119 45.35416,-45.354119 v -11.33944 H 714.33985 v 11.33944 c 25.0488,0 45.3542,20.30547919 45.3542,45.354119 0,25.048719 -20.3054,45.354198 -45.3542,45.354198 v 11.3394 z"
       style="fill:#0f1040;fill-opacity:1;fill-rule:nonzero;stroke:#000000;stroke-width:11.3375;stroke-linecap:butt;stroke-linejoin:miter;stroke-miterlimit:10;stroke-dasharray:none;stroke-opacity:1" />
    <path
       id="path2"
       d="M 192.7579,81.260585 H -328.824 v -11.3394 c -25.04868,0 -45.35416,-20.305479 -45.35416,-45.354198 0,-25.04863981 20.30548,-45.354119 45.35416,-45.354119 v -11.33944 H 714.33985 v 11.33944 c 25.0488,0 45.3542,20.30547919 45.3542,45.354119 0,25.048719 -20.3054,45.354198 -45.3542,45.354198 v 11.3394 z"
       style="fill:none;stroke:#ffffff;stroke-width:5.6696;stroke-linecap:butt;stroke-linejoin:miter;stroke-miterlimit:10;stroke-dasharray:none;stroke-opacity:1" />
    <path
       id="path3"
       d="m -238.73854,-12.536357 h -58.73438 l -1.82812,21.0468756 h 4.125 c 0.75,-9.8906249 1.64062,-16.9218754 14.20312,-16.9218754 h 6.75 V 42.260519 h -13.35937 v 4.125 c 4.6875,-0.28125 14.39062,-0.28125 19.54687,-0.28125 5.15625,0 14.8125,0 19.54688,0.28125 v -4.125 h -13.35938 V -8.4113568 h 6.65625 c 12.46875,0 13.3125,6.9843753 14.20313,16.9218754 h 4.125 z m 15.53906,54.796876 h -6 v 4.125 c 2.4375,-0.09375 7.6875,-0.28125 10.96876,-0.28125 3.42187,0 8.57812,0.1875 11.01562,0.28125 v -4.125 h -6 V 24.026144 c 0,-9.515625 7.5,-13.78125 12.98438,-13.78125 2.95312,0 4.78124,1.828125 4.78124,8.484375 v 23.53125 h -6 v 4.125 c 2.4375,-0.09375 7.6875,-0.28125 11.01563,-0.28125 3.375,0 8.53125,0.1875 10.96875,0.28125 v -4.125 h -6 v -22.59375 c 0,-9.140626 -4.73438,-12.5625 -13.45313,-12.5625 -8.39062,0 -12.84375,5.0625 -14.85937,8.578125 v -29.859376 l -15.42188,0.703128 v 4.078126 c 5.39063,0 6,0 6,3.4218744 z m 86.13281,-14.90625 c 1.92188,0 2.81251,0 2.81251,-2.34375 0,-2.71875 -0.5156,-9.09375 -4.875,-13.453125 -3.23438,-3.140625 -7.875,-4.6875002 -13.92188,-4.6875002 -13.92188,0 -21.51563,8.9531252 -21.51563,19.8750002 0,11.71875 8.71875,20.15625 22.78126,20.15625 13.78125,0 17.53125,-9.234375 17.53125,-10.734375 0,-1.546875 -1.68751,-1.546875 -2.10938,-1.546875 -1.5,0 -1.64062,0.421872 -2.15625,1.828125 -1.875,4.171875 -6.84375,6.984375 -12.51562,6.984375 -12.28126,0 -12.375,-11.625 -12.375,-16.078125 z m -26.34374,-2.859375 c 0.18752,-3.421875 0.28128,-7.078125 2.10937,-9.984375 2.25,-3.46875 5.71875,-4.5 8.25,-4.5 10.21875,0 10.40625,11.390625 10.5,14.484375 z m 132.292968,-36.515625 c 0,-1.640626 0,-2.4375 -1.54688,-2.4375 -0.79688,0 -0.984376,0.187496 -1.687496,0.796872 l -5.718752,5.1562502 c -5.437496,-4.3593752 -11.296873,-5.9531252 -17.203129,-5.9531252 -21.75,0 -35.109368,13.0312501 -35.109368,30.890625 0,17.90625 13.359368,30.890626 35.109368,30.890626 16.312505,0 26.156257,-10.734376 26.156257,-20.765625 0,-1.734376 -0.60936,-1.828125 -2.062504,-1.828125 -1.171872,0 -1.921872,0 -2.015624,1.5 -0.60936,11.671874 -11.203128,17.015625 -20.015625,17.015625 -6.796872,0 -14.109376,-2.109375 -18.656248,-7.406251 -4.125,-4.968749 -5.156256,-11.531249 -5.156256,-19.40625 0,-4.875 0.28128,-14.2968749 5.765632,-20.0624998 5.671872,-5.7656248 13.265624,-6.7031252 17.812496,-6.7031252 9.421873,0 17.718753,6.6093748 19.640625,17.7187502 0.2344,1.6406248 0.32816,1.8281248 2.343752,1.8281248 2.25,0 2.343752,-0.187496 2.343752,-2.4375 z m 40.1132803,6.8906246 c 1.4062477,-0.75 3.3281197,-1.7343752 3.3281197,-4.5 0,-2.7187506 -2.4374957,-5.4374996 -5.2499998,-5.4374996 -2.015624,0 -3.046872,1.125 -4.07812,2.296875 -2.29688005,2.531249 -7.5937521,8.9531246 -9.7968801,11.4843743 l 2.625,3.2343752 z M 14.843494,27.354269 c 1.921872,0 2.812496,0 2.812496,-2.34375 0,-2.71875 -0.5156,-9.09375 -4.875,-13.453125 C 9.5466143,8.416769 4.9059902,6.8698938 -1.1408819,6.8698938 c -13.9218721,0 -21.5156241,8.9531252 -21.5156241,19.8750002 0,11.71875 8.718752,20.15625 22.78124814,20.15625 13.78124786,0 17.53124786,-9.234375 17.53124786,-10.734375 0,-1.546875 -1.687496,-1.546875 -2.109376,-1.546875 -1.5,0 -1.640624,0.421872 -2.156248,1.828125 -1.875,4.171875 -6.8437518,6.984375 -12.51562385,6.984375 -12.28124815,0 -12.37500015,-11.625 -12.37500015,-16.078125 z m -26.343752,-2.859375 c 0.18752,-3.421875 0.28128,-7.078125 2.109376,-9.984375 2.2500001,-3.46875 5.7187521,-4.5 8.2500001,-4.5 10.2187522,0 10.4062482,11.390625 10.5000002,14.484375 z M 64.695055,13.573019 c 0.5156,-1.21875 0.890624,-1.828125 6.468752,-1.828125 V 7.6198938 c -2.203128,0.187496 -4.734376,0.281248 -6.890624,0.281248 -2.203128,0 -6.093752,-0.187496 -7.968752,-0.281248 v 4.1250002 c 1.687504,0 4.218752,0.234376 4.218752,0.9375 0,0.09375 -0.09376,0.281248 -0.46872,1.078125 l -10.125,21.796875 -11.062496,-23.8125 h 4.734368 V 7.6198938 c -2.906248,0.187496 -10.734368,0.281248 -10.82812,0.281248 -2.437504,0 -6.375001,-0.187496 -9.984377,-0.281248 v 4.1250002 h 5.625 l 15.234377,32.8125 c 1.07812,2.15625 2.20312,2.15625 3.32812,2.15625 1.5,0 2.343752,-0.234375 3.234376,-2.0625 z m 46.324225,13.78125 c 1.92187,0 2.8125,0 2.8125,-2.34375 0,-2.71875 -0.5156,-9.09375 -4.875,-13.453125 -3.23438,-3.140625 -7.875,-4.6875002 -13.921877,-4.6875002 -13.92188,0 -21.515624,8.9531252 -21.515624,19.8750002 0,11.71875 8.718744,20.15625 22.781248,20.15625 13.781253,0 17.531253,-9.234375 17.531253,-10.734375 0,-1.546875 -1.6875,-1.546875 -2.10938,-1.546875 -1.5,0 -1.64062,0.421872 -2.15625,1.828125 -1.875,4.171875 -6.84375,6.984375 -12.515623,6.984375 -12.281248,0 -12.375,-11.625 -12.375,-16.078125 z M 84.675527,24.494894 c 0.18752,-3.421875 0.28128,-7.078125 2.109376,-9.984375 2.25,-3.46875 5.718744,-4.5 8.25,-4.5 10.218747,0 10.406247,11.390625 10.499997,14.484375 z m 41.976563,-9.1875 v 26.953125 h -6 v 4.125 c 2.4375,-0.09375 7.6875,-0.28125 10.96875,-0.28125 3.42187,0 8.57812,0.1875 11.01562,0.28125 v -4.125 h -6 V 24.026144 c 0,-9.515625 7.5,-13.78125 12.98438,-13.78125 2.95312,0 4.78125,1.828125 4.78125,8.484375 v 23.53125 h -6 v 4.125 c 2.4375,-0.09375 7.6875,-0.28125 11.01562,-0.28125 3.375,0 8.53125,0.1875 10.96875,0.28125 v -4.125 h -6 v -22.59375 c 0,-9.140626 -4.73437,-12.5625 -13.45312,-12.5625 -8.39063,0 -13.03125,4.96875 -15.28125,9.421874 V 7.104269 l -15,0.703128 v 4.125 c 5.39062,0 6,0 6,3.374997 z m 55.75781,0 v 26.953125 h -6 v 4.125 c 2.4375,-0.09375 7.6875,-0.28125 10.96875,-0.28125 3.42188,0 8.57813,0.1875 11.01563,0.28125 v -4.125 h -6 V 24.026144 c 0,-9.515625 7.5,-13.78125 12.98437,-13.78125 2.95313,0 4.78125,1.828125 4.78125,8.484375 v 23.53125 h -6 v 4.125 c 2.4375,-0.09375 7.6875,-0.28125 11.01563,-0.28125 3.375,0 8.53125,0.1875 10.96875,0.28125 v -4.125 h -6 v -22.59375 c 0,-9.140626 -4.73438,-12.5625 -13.45313,-12.5625 -8.39062,0 -13.03125,4.96875 -15.28125,9.421874 V 7.104269 l -15,0.703128 v 4.125 c 5.39063,0 6,0 6,3.374997 z m 86.13281,12.046875 c 1.92188,0 2.81251,0 2.81251,-2.34375 0,-2.71875 -0.5156,-9.09375 -4.875,-13.453125 -3.23438,-3.140625 -7.875,-4.6875002 -13.92188,-4.6875002 -13.92187,0 -21.51563,8.9531252 -21.51563,19.8750002 0,11.71875 8.71876,20.15625 22.78125,20.15625 13.78126,0 17.53126,-9.234375 17.53126,-10.734375 0,-1.546875 -1.68751,-1.546875 -2.10938,-1.546875 -1.5,0 -1.64062,0.421872 -2.15625,1.828125 -1.875,4.171875 -6.84375,6.984375 -12.51563,6.984375 -12.28125,0 -12.375,-11.625 -12.375,-16.078125 z m -26.34375,-2.859375 c 0.18752,-3.421875 0.28128,-7.078125 2.10938,-9.984375 2.25,-3.46875 5.71875,-4.5 8.25,-4.5 10.21875,0 10.40625,11.390625 10.5,14.484375 z m 50.44923,-3.75 c -3.23438,-0.609376 -8.90625,-1.59375 -8.90625,-5.671875 0,-5.4375004 8.10937,-5.4375004 9.79687,-5.4375004 6.51562,0 9.84375,2.5312504 10.26562,7.3593754 0.0938,1.265625 0.18752,1.734375 2.01563,1.734375 2.10937,0 2.10937,-0.468752 2.10937,-2.4375 V 9.3073938 c 0,-1.6875 0,-2.4375 -1.59375,-2.4375 -0.32816,0 -0.5156,0 -3.93749,1.6406248 -2.25,-1.125 -5.29688,-1.6406248 -8.81251,-1.6406248 -2.57812,0 -16.03125,0 -16.03125,11.3906252 0,3.515625 1.73438,5.859375 3.46876,7.359375 3.51562,3.046875 6.79687,3.5625 13.54687,4.78125 3.14062,0.515624 9.70313,1.6875 9.70313,6.796875 0,6.5625 -8.06251,6.5625 -9.98438,6.5625 -9.23438,0 -11.53125,-6.375 -12.5625,-10.125 -0.42184,-1.21875 -0.84375,-1.21875 -2.10937,-1.21875 -2.06251,0 -2.06251,0.515624 -2.06251,2.53125 v 9.515625 c 0,1.640625 0,2.4375 1.54688,2.4375 0.60936,0 0.79688,0 2.625,-1.3125 0.0938,0 2.01563,-1.3125 2.29688,-1.453125 3.98437,2.765625 8.53124,2.765625 10.26562,2.765625 2.71875,0 16.17187,0 16.17187,-12.75 0,-3.75 -1.78125,-6.796875 -4.82812,-9.234375 -3.375,-2.53125 -6.1875,-3.046875 -12.98437,-4.171875 z m 117.77343,1.734375 h -4.07812 c -1.92188,12.046875 -4.35938,19.78125 -20.53125,19.78125 H 372.54662 V 17.651144 h 4.82813 c 8.34375,0 9.23437,3.75 9.23437,10.21875 h 4.07813 V 3.3542689 h -4.07813 c 0,6.4687497 -0.79688,10.2187501 -9.23437,10.2187501 h -4.82813 V -8.8801064 h 13.26563 c 14.0625,0 16.3125,6.3750001 17.71875,16.9687498 h 4.125 l -2.71875,-21.0468744 h -54.1875 v 4.0781246 h 9.42187 V 42.260519 h -9.42187 v 4.125 h 55.6875 z m 33.02344,2.4375 10.21875,-11.34375 c 1.125,-1.21875 1.64063,-1.828125 8.90625,-1.828125 V 7.6198938 c -3.04687,0.187496 -7.59375,0.281248 -8.01562,0.281248 -2.20313,0 -6.5625,-0.187496 -9,-0.281248 v 4.1250002 c 1.21875,0 2.25,0.187496 3.32812,0.796872 -0.37496,0.515624 -0.37496,0.656248 -0.70312,1.031249 l -7.35937,8.203125 -8.53125,-10.031249 h 3.46875 V 7.6198906 c -2.25,0.093752 -7.73437,0.281248 -10.54688,0.281248 -2.76562,0 -6.70312,-0.187496 -9.60937,-0.281248 v 4.1250004 h 6.1875 l 13.64062,16.031249 -11.43749,12.843751 c -1.5,1.640625 -4.64063,1.640625 -8.81251,1.640625 v 4.125003 c 3.04687,-0.1875 7.59375,-0.28125 8.01562,-0.28125 2.20313,0 7.26562,0.1875 9,0.28125 v -4.125 c -1.54687,0 -3.23438,-0.421875 -3.23438,-0.9375 0,-0.09375 0,-0.1875 0.60936,-0.890625 l 8.48438,-9.515625 9.60938,11.34375 h -3.42186 v 4.125 c 2.25,-0.09375 7.59374,-0.28125 10.45312,-0.28125 2.8125,0 6.75,0.1875 9.60938,0.28125 v -4.125 h -6.1875 z m 42,-7.265625 c 0,-1.640625 0.0938,-1.734375 1.3125,-2.953125 3.46875,-3.5625 8.01563,-4.078125 9.9375,-4.078125 5.85938,0 10.73434,5.296875 10.73434,16.3125 0,12.28125 -6.09368,16.828125 -11.81246,16.828125 -1.21875,0 -5.29688,0 -9.23438,-4.6875 -0.9375,-1.171875 -0.9375,-1.21875 -0.9375,-2.90625 z m 0,25.3125 c 3.75,3.09375 7.59375,3.9375 11.15625,3.9375 13.07809,0 21.98441,-7.828125 21.98441,-19.96875 0,-11.625 -7.92192,-19.828125 -20.4844,-19.828125 -6.56251,0 -11.20313,2.7187496 -13.21876,4.265625 V 7.104269 l -15.42188,0.703128 v 4.125 c 5.39063,0 6,0 6,3.28125 v 44.015626 h -6 v 4.078125 c 2.43751,-0.09375 7.68751,-0.234376 11.01563,-0.234376 3.375,0 8.53125,0.140624 10.96875,0.234376 V 59.22927 h -6 z m 54.25778,-25.96875 V 7.104269 l -14.48432,0.703128 v 4.125 c 5.39056,0 6,0 6,3.375 v 26.953125 h -6 v 4.124997 c 3.04688,-0.09375 6.98432,-0.28125 11.0156,-0.28125 3.28128,0 8.85936,0 12,0.28125 v -4.125 h -7.59376 V 27.026144 c 0,-6.140625 2.20312,-16.78125 10.92193,-16.78125 -0.0936,0.09375 -1.64064,1.5 -1.64064,4.031249 0,3.562501 2.7656,5.296876 5.29688,5.296876 2.5312,0 5.34376,-1.828125 5.34376,-5.296876 0,-4.6406244 -4.7344,-7.171874 -9.2344,-7.171874 -6.14065,0 -9.60937,4.359374 -11.62505,9.890625 z m 63.92585,10.359375 c 1.92184,0 2.81248,0 2.81248,-2.34375 0,-2.71875 -0.5152,-9.09375 -4.87504,-13.453125 -3.23432,-3.140625 -7.87496,-4.6875002 -13.92184,-4.6875002 -13.92184,0 -21.5156,8.9531252 -21.5156,19.8750002 0,11.71875 8.71872,20.15625 22.7812,20.15625 13.78128,0 17.53128,-9.234375 17.53128,-10.734375 0,-1.546875 -1.68752,-1.546875 -2.10936,-1.546875 -1.5,0 -1.64064,0.421872 -2.15624,1.828125 -1.87504,4.171875 -6.84376,6.984375 -12.51568,6.984375 -12.2812,0 -12.37496,-11.625 -12.37496,-16.078125 z m -26.34376,-2.859375 c 0.1872,-3.421875 0.2808,-7.078125 2.10936,-9.984375 2.25,-3.46875 5.71872,-4.5 8.25,-4.5 10.21872,0 10.40624,11.390625 10.5,14.484375 z m 50.46088,-3.75 c -3.23432,-0.609376 -8.90624,-1.59375 -8.90624,-5.671875 0,-5.4375004 8.10944,-5.4375004 9.79688,-5.4375004 6.51568,0 9.84376,2.5312504 10.26568,7.3593754 0.0936,1.265625 0.1872,1.734375 2.0156,1.734375 2.10936,0 2.10936,-0.468752 2.10936,-2.4375 V 9.3073938 c 0,-1.6875 0,-2.4375 -1.59376,-2.4375 -0.328,0 -0.5152,0 -3.93752,1.6406248 -2.25,-1.125 -5.2968,-1.6406248 -8.81248,-1.6406248 -2.57808,0 -16.0312,0 -16.0312,11.3906252 0,3.515625 1.73432,5.859375 3.46872,7.359375 3.5156,3.046875 6.79688,3.5625 13.54688,4.78125 3.14064,0.515624 9.70312,1.6875 9.70312,6.796875 0,6.5625 -8.06248,6.5625 -9.9844,6.5625 -9.23432,0 -11.5312,-6.375 -12.56248,-10.125 -0.4216,-1.21875 -0.84376,-1.21875 -2.10936,-1.21875 -2.06248,0 -2.06248,0.515624 -2.06248,2.53125 v 9.515625 c 0,1.640625 0,2.4375 1.54688,2.4375 0.6096,0 0.7968,0 2.62496,-1.3125 0.0936,0 2.0156,-1.3125 2.29688,-1.453125 3.9844,2.765625 8.53128,2.765625 10.2656,2.765625 2.7188,0 16.17192,0 16.17192,-12.75 0,-3.75 -1.78128,-6.796875 -4.82816,-9.234375 -3.37496,-2.53125 -6.18752,-3.046875 -12.9844,-4.171875 z m 39.586,0 c -3.2344,-0.609376 -8.90624,-1.59375 -8.90624,-5.671875 0,-5.4375004 8.10936,-5.4375004 9.79688,-5.4375004 6.5156,0 9.84368,2.5312504 10.2656,7.3593754 0.0936,1.265625 0.1872,1.734375 2.0156,1.734375 2.10936,0 2.10936,-0.468752 2.10936,-2.4375 V 9.3073938 c 0,-1.6875 0,-2.4375 -1.59376,-2.4375 -0.328,0 -0.5152,0 -3.93744,1.6406248 -2.25,-1.125 -5.29688,-1.6406248 -8.81256,-1.6406248 -2.57808,0 -16.0312,0 -16.0312,11.3906252 0,3.515625 1.7344,5.859375 3.46872,7.359375 3.51568,3.046875 6.79688,3.5625 13.54688,4.78125 3.14064,0.515624 9.70312,1.6875 9.70312,6.796875 0,6.5625 -8.06248,6.5625 -9.98432,6.5625 -9.2344,0 -11.53128,-6.375 -12.56256,-10.125 -0.4216,-1.21875 -0.84376,-1.21875 -2.10936,-1.21875 -2.06248,0 -2.06248,0.515624 -2.06248,2.53125 v 9.515625 c 0,1.640625 0,2.4375 1.54688,2.4375 0.6096,0 0.7968,0 2.62496,-1.3125 0.0936,0 2.01568,-1.3125 2.29688,-1.453125 3.9844,2.765625 8.53128,2.765625 10.26568,2.765625 2.71872,0 16.17184,0 16.17184,-12.75 0,-3.75 -1.78128,-6.796875 -4.82816,-9.234375 -3.37496,-2.53125 -6.18744,-3.046875 -12.98432,-4.171875 z m 0,0"
       style="fill:#ffffff;fill-opacity:1;fill-rule:nonzero;stroke:none;stroke-width:8"
       aria-label="TheC´evennesExpress" />
  </g>
</svg>
